<svg id="Layer_1" data-name="Layer 1" xmlns="http://www.w3.org/2000/svg" viewBox="0 0 362.48 60.81"><defs><style>.cls-1{fill:#fff;}.cls-2{fill:#f47735;}</style></defs><title>houdini_white_color</title><path class="cls-1" d="M34.76,44.05H47.38v22.7H70.66V44.05H83.28v57.37H70.66v-23H47.38v23H34.76V44.05Z" transform="translate(-34.76 -41.6)"/><path class="cls-1" d="M89.46,79.7V79.54c0-12.62,10.16-22.86,23.85-22.86S137,66.75,137,79.38v0.16c0,12.62-10.16,22.86-23.85,22.86S89.46,92.32,89.46,79.7Zm35.24,0V79.54c0-6.47-4.67-12.13-11.56-12.13-7.13,0-11.39,5.49-11.39,12v0.16c0,6.47,4.67,12.13,11.55,12.13C120.44,91.67,124.7,86.18,124.7,79.7Z" transform="translate(-34.76 -41.6)"/><path class="cls-1" d="M142.4,85.93V57.49h12.46V82c0,5.9,2.79,8.93,7.54,8.93s7.79-3,7.79-8.93V57.49h12.46v43.93H170.18V95.19c-2.87,3.69-6.56,7-12.87,7C147.89,102.24,142.4,96,142.4,85.93Z" transform="translate(-34.76 -41.6)"/><path class="cls-1" d="M188.54,79.54V79.38c0-14.67,9.59-22.7,20-22.7a16.87,16.87,0,0,1,13.69,6.56V41.6h12.46v59.82H222.21V95.11c-3,4.1-7.21,7.13-13.69,7.13C198.29,102.24,188.54,94.21,188.54,79.54Zm33.84,0V79.38c0-7.29-4.83-12.13-10.65-12.13S201,72,201,79.38v0.16c0,7.29,4.91,12.13,10.73,12.13S222.38,86.83,222.38,79.54Z" transform="translate(-34.76 -41.6)"/><path class="cls-1" d="M242.78,41.6H255.9V52.66H242.78V41.6Zm0.33,15.9h12.46v43.93H243.11V57.49Z" transform="translate(-34.76 -41.6)"/><path class="cls-1" d="M264,57.49h12.46v6.23c2.87-3.69,6.56-7,12.87-7,9.42,0,14.92,6.23,14.92,16.31v28.44H291.79V76.92c0-5.9-2.79-8.93-7.54-8.93s-7.79,3-7.79,8.93v24.5H264V57.49Z" transform="translate(-34.76 -41.6)"/><path class="cls-1" d="M312,41.6h13.11V52.66H312V41.6Zm0.33,15.9h12.46v43.93H312.36V57.49Z" transform="translate(-34.76 -41.6)"/><path class="cls-2" d="M334.35,93.43v8h7A15.87,15.87,0,0,1,334.35,93.43Z" transform="translate(-34.76 -41.6)"/><path class="cls-2" d="M363.72,85.09a15.07,15.07,0,0,0-14.85-14.8,18.72,18.72,0,0,0-14.52,5.52v7.71a14.2,14.2,0,0,1,13.58-9.38c6.46,0.06,11.44,4.94,11.47,10.44,0,5.26-2.18,9.14-8.13,10.09-3.24.52-8.32-1.38-8.1-6.28a4,4,0,0,1,4.34-3.85c-2.21,3,.72,5.13,2.78,4.68a4.59,4.59,0,0,0,3.6-4.58c0-1.86-1.75-4.86-6.1-4.76a8.72,8.72,0,0,0-8.88,8.78c-0.14,6,5.49,10,11.27,10.05C358.69,98.82,363.73,93.25,363.72,85.09Z" transform="translate(-34.76 -41.6)"/><path class="cls-2" d="M334.35,57.49V70.13a23.5,23.5,0,0,1,14.52-4.77c12.46,0,20.38,8.72,20.37,19.7,0,7.63-3.56,13.37-9.14,16.36h18.18V57.49H334.35Z" transform="translate(-34.76 -41.6)"/><path class="cls-2" d="M384.91,59h-2.22V57.49h6V59h-2.22v5.81h-1.6V59Z" transform="translate(-34.76 -41.6)"/><path class="cls-2" d="M390,57.49h1.73l1.91,3.08,1.91-3.08h1.73v7.28h-1.59V60l-2.05,3.11h0l-2-3.08v4.72H390V57.49Z" transform="translate(-34.76 -41.6)"/></svg>