<?xml version="1.0" encoding="utf-8"?>
<!-- Generator: Adobe Illustrator 19.1.0, SVG Export Plug-In . SVG Version: 6.00 Build 0)  -->
<svg version="1.1" id="Layer_1" xmlns="http://www.w3.org/2000/svg" xmlns:xlink="http://www.w3.org/1999/xlink" x="0px" y="0px"
	 viewBox="0 0 60 60" style="enable-background:new 0 0 60 60;" xml:space="preserve">
<style type="text/css">
	.st0{opacity:0.2588;fill:#FFFFFF;}
	.st1{fill:#FFFFFF;}
	.st2{fill:#EF443B;}
</style>
<path class="st0" d="M10.8,57.7c-0.2,0-0.4-0.1-0.6-0.2c-0.3-0.2-0.5-0.5-0.6-0.8L0,14.5c-0.1-0.6,0.3-1.3,0.9-1.5L41.5,2.8
	c0.6-0.1,1.2,0.1,1.4,0.7l17,37.7c0.1,0.3,0.1,0.7,0,1c-0.1,0.3-0.4,0.6-0.8,0.7l-48,14.8C11,57.7,10.9,57.7,10.8,57.7z M2.7,15.1
	l9,39.8l45.4-14l-16-35.5L2.7,15.1z"/>
<path class="st1" d="M15.4,40.7l0.4,1.1l0.6,0.9l0.8,0.8l0.9,0.6l1,0.4l1.1,0.2l1.2,0l1.2-0.2l1.2-0.5l1-0.6l0.8-0.8l0.6-0.9l0.4-1
	l0.2-1.1l0-1.1l-0.2-1.1l-0.4-1l-0.6-0.9l-0.8-0.7L24,34.2l-1-0.4l-1.1-0.2l-1.1,0l-1.2,0.2l-1.1,0.4l-1,0.6l-0.8,0.7L16,36.5
	l-0.5,1l-0.3,1l-0.1,1.1L15.4,40.7 M9.5,33.1l18.1-5l5.7,17.3l-19.4,5.9L9.5,33.1"/>
<path class="st2" d="M14.2,18.9l-2.5,1.2l2.8-0.2L14.2,18.9 M45,36.1l-0.4-2.8l-1.2,0.4L45,36.1 M39.8,7.3l-5.2,1.3l1.8,4.5l5.4-1.4
	L39.8,7.3 M47,41.2l6.6-2L42.1,12.6L36.7,14l7.2,17.9l1.4-0.4L47,41.2 M6.6,21.4L8,27L32,20.5l8.3,22.7l6.7-2l-5.8-8.5l1.5-0.4
	l-7.1-17.9L16,19.5l0.3,1.2L6.6,21.4 M5.3,16.1l1.3,5.3l8.7-4.2l0.4,1.3l19.7-5.2l-1.8-4.5L5.3,16.1 M9.5,33.1l4.4,18.1l19.4-5.9
	l-5.7-17.3L9.5,33.1 M58.8,41.7l-48,14.8L1.2,14.2L41.8,4L58.8,41.7"/>
<polyline class="st1" points="42.8,32.2 41.3,32.6 47,41.2 40.3,43.2 32,20.5 8,27 6.6,21.4 16.3,20.7 16,19.5 35.7,14.3 42.8,32.2 
	"/>
<polyline class="st1" points="33.6,8.9 35.4,13.4 15.7,18.5 15.3,17.3 6.6,21.4 5.3,16.1 33.6,8.9 "/>
<polyline class="st1" points="45.3,31.5 43.9,31.9 36.7,14 42.1,12.6 53.6,39.2 47,41.2 45.3,31.5 "/>
<polyline class="st1" points="34.6,8.6 39.8,7.3 41.7,11.7 36.4,13.1 34.6,8.6 "/>
<polyline class="st1" points="45,36.1 43.3,33.6 44.5,33.3 45,36.1 "/>
<polyline class="st1" points="11.7,20.1 14.2,18.9 14.5,19.9 11.7,20.1 "/>
<path class="st2" d="M25.5,36.8L25,36l-0.6-0.6l-0.8-0.5l-0.9-0.3l-0.9-0.2l-1,0l-1,0.2l-1,0.4L18,35.4l-0.7,0.6l-0.5,0.7l-0.4,0.8
	l-0.2,0.9l0,0.9l0.2,1l0.3,0.9l0.5,0.8l0.6,0.7l0.8,0.5l0.9,0.4l1,0.2l1,0l1.1-0.2l1-0.4l0.9-0.6l0.7-0.7l0.5-0.8l0.4-0.9l0.2-0.9
	l0-0.9l-0.2-1L25.5,36.8 M15.3,38.5l0.3-1l0.5-1l0.6-0.9l0.8-0.7l1-0.6l1.1-0.4l1.2-0.2l1.1,0l1.1,0.2l1,0.4l0.9,0.6l0.8,0.7
	l0.6,0.9l0.4,1l0.2,1.1l0,1.1l-0.2,1.1l-0.4,1l-0.6,0.9l-0.8,0.8l-1,0.6l-1.2,0.5l-1.2,0.2l-1.2,0l-1.1-0.2l-1-0.4l-0.9-0.6
	l-0.8-0.8l-0.6-0.9l-0.4-1.1l-0.2-1.1L15.3,38.5"/>
<path class="st1" d="M20.4,40.4l2-0.6l0.9,1.2l0.9-0.4l-3.2-4l-1.1,0.3L19.4,42l0.9-0.3L20.4,40.4 M19.8,34.5l1-0.2l1,0l0.9,0.2
	l0.9,0.3l0.8,0.5L25,36l0.5,0.8l0.4,0.9l0.2,1l0,0.9l-0.2,0.9l-0.4,0.9L25,42.1l-0.7,0.7l-0.9,0.6l-1,0.4L21.4,44l-1,0l-1-0.2
	l-0.9-0.4l-0.8-0.5l-0.6-0.7l-0.5-0.8l-0.3-0.9l-0.2-1l0-0.9l0.2-0.9l0.4-0.8l0.5-0.7l0.7-0.6l0.8-0.5L19.8,34.5"/>
<path class="st2" d="M20.4,39.6l1.5-0.4l-1.4-1.8L20.4,39.6 M22.4,39.8l-2,0.6l-0.1,1.4L19.4,42l0.5-5.2l1.1-0.3l3.2,4L23.3,41
	L22.4,39.8"/>
<polyline class="st1" points="22,39.2 20.4,39.6 20.6,37.3 22,39.2 "/>
</svg>
