<?xml version="1.0" encoding="utf-8"?>
<!-- Generator: Adobe Illustrator 19.1.0, SVG Export Plug-In . SVG Version: 6.00 Build 0)  -->
<svg version="1.1" id="Layer_1" xmlns="http://www.w3.org/2000/svg" xmlns:xlink="http://www.w3.org/1999/xlink" x="0px" y="0px"
	 viewBox="0 0 60 60" style="enable-background:new 0 0 60 60;" xml:space="preserve">
<style type="text/css">
	.st0{opacity:0.2588;fill:#FFFFFF;}
	.st1{fill:#FFFFFF;}
	.st2{fill:#ED433A;}
</style>
<g>
	<path class="st0" d="M22.3,55.2c-0.7,0-1.5-0.5-1.7-1.2l-3.3-8.9L8.7,44c-0.7-0.1-1.3-0.6-1.5-1.3L0.3,20.9c-0.2-0.6,0-1.3,0.4-1.8
		c0.5-0.5,1.2-0.7,1.8-0.5l3.8,1c0.1-0.2,0.3-0.4,0.5-0.6l2.8-2.4l-1.6-5.1c-0.2-0.5-0.1-1,0.2-1.5c0.3-0.4,0.7-0.8,1.2-0.9
		l23.9-5.9c1-0.2,2,0.4,2.2,1.3l1.2,4.5l4,1.4l3.4-3.4c0.4-0.4,0.9-0.6,1.5-0.5c0.5,0,1,0.3,1.4,0.8l12.8,17.9
		c0.6,0.8,0.4,1.9-0.3,2.5L51,34.9l4.1,1.9c0.7,0.3,1.1,1,1.1,1.8c0,0.8-0.5,1.4-1.3,1.6L48,42.5l-0.7,3.4c-0.1,0.6-0.6,1.2-1.2,1.4
		l-23.2,7.9C22.7,55.2,22.5,55.2,22.3,55.2z M10.3,40.5l8.5,1.1c0.7,0.1,1.2,0.5,1.5,1.2l3.1,8.3l20.5-7l0.7-3.4
		c0.1-0.6,0.6-1.2,1.2-1.4l3.5-1.2L46.8,37c-0.6-0.3-1-0.8-1-1.4c-0.1-0.6,0.2-1.2,0.6-1.7l9.2-7.9L45.2,11.3l-2.6,2.7
		c-0.5,0.5-1.2,0.7-1.9,0.5l-6.1-2.1c-0.6-0.2-1-0.7-1.2-1.3l-1-3.7l-20.2,5l1.4,4.4c0.2,0.7,0,1.5-0.6,2l-2.6,2.2l0.3,0.5
		c0.4,0.6,0.3,1.5-0.1,2c-0.5,0.6-1.2,0.9-1.9,0.7l-3.7-1L10.3,40.5z"/>
	<polygon class="st1" points="47.6,35.2 58.2,26.1 45.4,8.2 38.9,14.8 35.7,12.2 33.7,4.9 9.8,10.8 13.3,23.3 2.1,20.2 8.9,41.9 
		18.6,43.2 22.3,53.2 45.5,45.3 46.4,40.9 54.3,38.3 	"/>
	<path class="st2" d="M59.4,26.3L45.5,6.8L40,12.2L36.3,11l-1.9-7.2L8.7,10.1l2.2,7.9L8,20.4l0.3,0.5l-7.6-2.1l7.5,23.9l9.5,1.3
		l4,10.7l24.6-8.4l1-4.8l9.5-3.1l-7.5-3.5L59.4,26.3z M56.9,26L47.5,34l-2.6-4.3l2.2-1.4l4.3-7.4l-8.9-7.8L42,12.9l3.3-3.3L56.9,26z
		 M46.7,35.2C46.7,35.2,46.7,35.3,46.7,35.2c0,0.1,0,0.1,0,0.1L41.5,37l-2-3.8l4.7-3l2.7,4.5c0,0,0,0,0,0c0,0,0,0,0,0c0,0,0,0,0,0.1
		c0,0,0,0.1,0,0.1c0,0,0,0.1,0,0.1C46.7,35,46.7,35.1,46.7,35.2C46.7,35.1,46.7,35.2,46.7,35.2z M33.1,6l1.2,4.4l-9.4-0.1L17,12.8
		l-4.6,3.9L11,11.5L33.1,6z M9.6,41.1L3.5,21.5l6.1,1.7l2.7,4.7l3.2,2.2l4.9,12.5L9.6,41.1z M21.8,42.7l-0.4,0L16.8,31l2.6,1.8
		l10,6.9l9.2-5.9l1.9,3.6l-18.5,5.9L21.8,42.7z M51.8,38.1L25,47l-2.3-3l24.7-7.9L51.8,38.1z"/>
	<path class="st1" d="M52,20.8C52,20.8,52,20.8,52,20.8c0-0.1,0-0.1,0-0.1c0,0,0,0,0,0c0,0,0-0.1-0.1-0.1c0,0,0,0,0,0
		c0,0,0-0.1-0.1-0.1c0,0,0,0,0,0L43,12.7c0,0,0,0,0,0l0,0c0,0,0,0,0,0c0,0,0,0-0.1-0.1c0,0-0.1,0-0.1,0c0,0,0,0.2,0,0.2l0,0.2
		c0,0,0,0,0,0l-1.4-0.7L35,10c0,0,0-0.1,0-0.1c0,0,0,0-0.1,0c0,0,0,0-0.1,0c0,0,0,0,0,0L24.7,9.6L16.9,12c0,0,0,0,0,0l0,0.1
		c0,0,0,0.1,0,0.1c0,0-0.1,0-0.1,0.1c0,0,0,0-0.1,0.1c0,0,0,0,0,0l0,0c0,0,0,0,0,0l-9.4,7.9l4.6,7.9c0,0,0,0,0,0
		c0,0,0.1,0.1,0.1,0.1c0,0,0,0,0,0c0,0,0,0,0.1,0.1l7.2,4.9l10,6.9c0,0,0,0,0,0c0,0,0.1,0,0.1,0.1c0,0,0,0,0,0
		c0.1,0,0.1,0.1,0.2,0.1c0,0,0,0,0,0c0,0,0,0,0,0c0,0,0,0,0,0c0,0,0,0,0,0c0.1,0,0.1,0,0.2,0c0,0,0,0,0,0c0,0,0.1,0,0.1-0.1
		c0,0,0,0,0,0l9.6-6.2l8.1-5.2c0,0,0.1,0,0.1-0.1c0,0,0,0,0,0c0,0,0.1-0.1,0.1-0.1c0,0,0,0,0,0l4.3-7.4c0,0,0,0,0,0c0,0,0-0.1,0-0.1
		c0,0,0,0,0,0c0,0,0,0,0-0.1C52,21,52,21,52,20.8C52,20.9,52,20.9,52,20.8C52,20.9,52,20.9,52,20.8z M48.3,19L44.1,17l-0.6-2.3
		L48.3,19z M24.9,10.9l9.8,0.1l6.3,2.2l1.3,0.4l0.9,3.4l-7.3,3.2l-12.1-0.1l-7.3-3.3l0.2-0.6l-0.1,0l0.8-2.9L24.9,10.9z M16.1,14.4
		l-0.6,2.3l-4.3,1.9L16.1,14.4z M8.8,20.6l6.3-2.7l-2.9,8.7L8.8,20.6z M16.2,17.6l6.5,3l-9.6,6.1L16.2,17.6z M23.5,21.2l5.3,9.9
		l-15.4-3.4L23.5,21.2z M29,38.6l-9.2-6.3l-4.9-3.3l14.3,3.2L29,38.6z M29.8,30.8L24.5,21l10.7,0.1L29.8,30.8z M38.7,33L30,38.6
		l0.2-6.4l14.3-2.8L38.7,33z M30.6,31.1l5.5-9.7l9.8,6.7L30.6,31.1z M36.9,20.8l6.5-2.8l2.9,9.2L36.9,20.8z M47.2,27l-2.7-8.7
		l6.2,2.9L47.2,27z"/>
</g>
</svg>
