<?xml version="1.0" encoding="utf-8"?>
<!-- Generator: Adobe Illustrator 19.1.0, SVG Export Plug-In . SVG Version: 6.00 Build 0)  -->
<svg version="1.1" id="Layer_1" xmlns="http://www.w3.org/2000/svg" xmlns:xlink="http://www.w3.org/1999/xlink" x="0px" y="0px"
	 viewBox="0 0 86.8 75.5" style="enable-background:new 0 0 86.8 75.5;" xml:space="preserve">
<style type="text/css">
	.st0{fill:#FFFFFF;}
	.st1{fill:#ED1C24;}
</style>
<path class="st0" d="M86.8,32.2l-19-26.7c-0.2-0.3-0.6-0.5-1-0.6c-0.4,0-0.8,0.1-1.1,0.4l-7.5,7.5l-4.2-6.7c-0.2-0.3-0.6-0.5-1-0.4
	l-1,0.3l-1.3-5c-0.2-0.7-0.9-1.2-1.7-1L13.3,8.8c-0.4,0.1-0.7,0.3-0.9,0.6c-0.2,0.3-0.2,0.7-0.1,1.1l4.5,16.2L2.4,22.9
	c-0.5-0.1-1,0-1.4,0.4c-0.3,0.4-0.5,0.9-0.3,1.4L10.9,57c0.2,0.5,0.6,0.9,1.1,1l13.6,1.8l5.3,14.1c0.2,0.6,0.7,0.9,1.3,0.9
	c0.1,0,0.3,0,0.4-0.1l34.6-11.8c0.5-0.2,0.8-0.5,0.9-1l1.2-5.8l11-3.6c0.5-0.2,0.9-0.7,0.9-1.2c0-0.6-0.3-1.1-0.8-1.3l-8-3.7
	l14.1-12.1C87.1,33.6,87.2,32.8,86.8,32.2z"/>
<g>
	<path class="st1" d="M86.8,32.2l-19-26.7c-0.2-0.3-0.6-0.5-1-0.6c-0.4,0-0.8,0.1-1.1,0.4l-7.5,7.5l-4.2-6.7c-0.2-0.3-0.6-0.5-1-0.4
		l-1,0.3l-1.3-5c-0.2-0.7-0.9-1.2-1.7-1L13.3,8.8c-0.4,0.1-0.7,0.3-0.9,0.6c-0.2,0.3-0.2,0.7-0.1,1.1l4.5,16.2L2.4,22.9
		c-0.5-0.1-1,0-1.4,0.4c-0.3,0.4-0.5,0.9-0.3,1.4L10.9,57c0.2,0.5,0.6,0.9,1.1,1l13.6,1.8l5.3,14.1c0.2,0.6,0.7,0.9,1.3,0.9
		c0.1,0,0.3,0,0.4-0.1l34.6-11.8c0.5-0.2,0.8-0.5,0.9-1l1.2-5.8l11-3.6c0.5-0.2,0.9-0.7,0.9-1.2c0-0.6-0.3-1.1-0.8-1.3l-8-3.7
		l14.1-12.1C87.1,33.6,87.2,32.8,86.8,32.2z M52.7,7.7l13.8,21.8l-10,2.9l-9.1-16.1c0-0.1-0.1-0.1-0.1-0.1c0,0,0,0,0,0c0,0,0,0,0,0
		c0,0,0,0,0,0c0,0,0,0,0,0c0,0-0.1,0-0.1,0c0,0,0,0-0.1,0c0,0,0,0-0.1,0c0,0,0,0,0,0c0,0-0.1,0-0.1,0c0,0,0,0,0,0c0,0,0,0,0,0
		c0,0,0,0,0,0L25,21.9L22.4,16l-0.1-0.6L52.7,7.7z M68.7,45.9C68.7,45.9,68.7,45.9,68.7,45.9C68.7,45.9,68.7,45.9,68.7,45.9
		c-0.1,0.1-0.1,0.2-0.1,0.3l-2.9,0.9l0.9-5.1L68.7,45.9C68.8,45.8,68.8,45.8,68.7,45.9z M19.9,29.5c0,0,0.1-0.1,0.1-0.1
		c0,0,0-0.1,0.1-0.1c0,0,0-0.1,0.1-0.1c0,0,0,0,0,0c0,0,0,0,0,0l2.1-0.6l1,9.6L19.9,29.5C19.9,29.6,19.9,29.5,19.9,29.5z M30.5,46.1
		l9.6-2.9l2.8,6l0.8,1.7l-5,1.6l-4.9,1.6L30.5,46.1z M44.7,43.6l-4-8.3c-0.1-0.2-0.3-0.3-0.5-0.3c0,0-0.1,0-0.1,0l-10.7,3.1
		l-3.1-7.4l20.2-5.6l8.3,15.4L44.7,43.6z M15.3,11.2l33-8.1l1,3.6l-28.1,7.2c-0.5,0.1-0.7,0.6-0.7,1l1.7,12.2l-2.1,0.6L15.3,11.2z
		 M4.1,26.2l14.3,3.9c0.1,0,0.1,0,0.2,0l10.7,27.4l-16-2.1L4.1,26.2z M76.2,50.9l-8.4,2.8c0,0,0,0,0,0L36.3,64.2l-3.8-5L69,47.5
		c0,0,0.1,0.1,0.1,0.1c0,0,0,0,0,0c0.1,0,0.1,0.1,0.2,0.1L76.2,50.9z M69.8,44.8l-2.9-4.9l1.7-10.1c0-0.2,0-0.5-0.1-0.6l-8.8-13.9
		l6.8-6.8l17.4,24.3L69.8,44.8z"/>
</g>
</svg>
