<svg id="Layer_1" data-name="Layer 1" xmlns="http://www.w3.org/2000/svg" viewBox="0 0 232.44 63.76"><defs><style>.cls-1{fill:#fff;}</style></defs><title>skylum_full_w</title><path class="cls-1" d="M95.93,46.44A10.5,10.5,0,0,1,90,44.81a8.55,8.55,0,0,1-3.43-4.52L88.73,39a6.53,6.53,0,0,0,2.52,3.65A7.86,7.86,0,0,0,96,44a6.9,6.9,0,0,0,4.38-1.25,4,4,0,0,0,1.56-3.29,3.41,3.41,0,0,0-1.44-3,19.15,19.15,0,0,0-4.75-2.09,28.23,28.23,0,0,1-5.18-2.08,5.52,5.52,0,0,1-2.88-5,6.24,6.24,0,0,1,2.23-5.06,8.36,8.36,0,0,1,5.51-1.85,8.63,8.63,0,0,1,5.11,1.53,9.22,9.22,0,0,1,3.2,3.91L101.58,27a6.21,6.21,0,0,0-6.19-4.17A5.86,5.86,0,0,0,91.61,24a3.88,3.88,0,0,0-1.44,3.2A3.24,3.24,0,0,0,91.46,30a16.28,16.28,0,0,0,4.29,1.91l2,.67c.39.13,1,.34,1.73.64a10.61,10.61,0,0,1,1.67.8c.36.22.8.54,1.31.93a4.22,4.22,0,0,1,1.12,1.19,7.51,7.51,0,0,1,.61,1.44,5.93,5.93,0,0,1,.27,1.82,6.32,6.32,0,0,1-2.34,5.13A9.39,9.39,0,0,1,95.93,46.44Z" transform="translate(-0.5 -0.53)"/><path class="cls-1" d="M129.8,46h-3.31L114.68,33.78V46h-2.52V20.81h2.52V32.34l11.45-11.53h3.31L117.35,33.05Z" transform="translate(-0.5 -0.53)"/><path class="cls-1" d="M154.82,20.81l-9.11,14.87V46h-2.52V35.61l-9.07-14.8H137l7.53,12.35L152,20.81Z" transform="translate(-0.5 -0.53)"/><path class="cls-1" d="M164.18,43.64H175.7V46h-14V20.81h2.52Z" transform="translate(-0.5 -0.53)"/><path class="cls-1" d="M198.31,44a10.61,10.61,0,0,1-13.54,0,8.64,8.64,0,0,1-2.59-6.56V20.81h2.52V37.44a6.39,6.39,0,0,0,1.8,4.79,8.06,8.06,0,0,0,10.08,0,6.39,6.39,0,0,0,1.8-4.79V20.81h2.52V37.44A8.6,8.6,0,0,1,198.31,44Z" transform="translate(-0.5 -0.53)"/><path class="cls-1" d="M232.94,20.81V46h-2.52V24.63L221.6,39.39h-.36l-8.82-14.76V46H209.9V20.81H213l8.43,14.11,8.43-14.11Z" transform="translate(-0.5 -0.53)"/><path class="cls-1" d="M14.78,49.27a34.3,34.3,0,0,0,1.71,10.78A31.9,31.9,0,0,1,3,19.93a31.89,31.89,0,0,1,26.8.86A34.62,34.62,0,0,0,14.78,49.27Z" transform="translate(-0.5 -0.53)"/><path class="cls-1" d="M60,48.31A31.95,31.95,0,0,1,19.9,61.76,32,32,0,0,1,20.76,35,34.65,34.65,0,0,0,49.25,50h0A34.29,34.29,0,0,0,60,48.31Z" transform="translate(-0.5 -0.53)"/><path class="cls-1" d="M64.27,32.41a31.65,31.65,0,0,1-2.54,12.48,31.51,31.51,0,0,1-12.48,2.54A31.8,31.8,0,0,1,34.93,44,34.65,34.65,0,0,0,50,15.55,34.31,34.31,0,0,0,48.28,4.77,31.93,31.93,0,0,1,64.27,32.41Z" transform="translate(-0.5 -0.53)"/><path class="cls-1" d="M47.41,15.55A31.86,31.86,0,0,1,44,29.86,34.66,34.66,0,0,0,15.53,14.8h0A34.29,34.29,0,0,0,4.74,16.52,31.91,31.91,0,0,1,44.87,3.07,31.65,31.65,0,0,1,47.41,15.55Z" transform="translate(-0.5 -0.53)"/></svg>