<svg xmlns="http://www.w3.org/2000/svg" xmlns:xlink="http://www.w3.org/1999/xlink" viewBox="0 0 288 321.42"><defs><style>.cls-1{fill:#414042;}.cls-2{fill:url(#linear-gradient);}.cls-3{fill:url(#linear-gradient-2);}.cls-4{fill:url(#linear-gradient-3);}</style><linearGradient id="linear-gradient" x1="84.67" y1="250.54" x2="243.67" y2="156.54" gradientUnits="userSpaceOnUse"><stop offset="0" stop-color="#3079ff"/><stop offset="0.2" stop-color="#3e76ff"/><stop offset="0.4" stop-color="#4a73ff"/><stop offset="0.6" stop-color="#5473ff"/><stop offset="0.8" stop-color="#5d67f6"/><stop offset="1" stop-color="#695ddf"/></linearGradient><linearGradient id="linear-gradient-2" x1="46.66" y1="160.38" x2="240.76" y2="160.38" gradientUnits="userSpaceOnUse"><stop offset="0" stop-color="#6ee2f5"/><stop offset="0.2" stop-color="#74c6f5"/><stop offset="0.4" stop-color="#76aaf4"/><stop offset="0.6" stop-color="#748ef3"/><stop offset="0.8" stop-color="#6e72f2"/><stop offset="1" stop-color="#6454f0"/></linearGradient><linearGradient id="linear-gradient-3" x1="46.66" y1="105.23" x2="240.76" y2="105.23" gradientUnits="userSpaceOnUse"><stop offset="0" stop-color="#00b8ba"/><stop offset="0.2" stop-color="#01c6c4"/><stop offset="0.4" stop-color="#01d4ce"/><stop offset="0.6" stop-color="#02e2d8"/><stop offset="0.8" stop-color="#01f0e3"/><stop offset="1" stop-color="#00ffed"/></linearGradient></defs><title>Asset 1fnl+clrs</title><g id="Layer_2" data-name="Layer 2"><g id="Layer_1-2" data-name="Layer 1"><path class="cls-1" d="M126,4.82,18,67.18A36,36,0,0,0,0,98.35V223.06a36,36,0,0,0,18,31.18l108,62.35a36,36,0,0,0,36,0l108-62.35a36,36,0,0,0,18-31.18V98.35a36,36,0,0,0-18-31.17L162,4.82A36,36,0,0,0,126,4.82Z"/><polygon class="cls-2" points="143.91 271.13 46.66 215.31 143.91 159.95 240.76 215.95 143.91 271.13"/><polygon class="cls-3" points="143.91 215.97 46.66 160.15 143.91 104.79 240.76 160.79 143.91 215.97"/><polygon class="cls-4" points="143.91 160.82 46.66 105 143.91 49.63 240.76 105.64 143.91 160.82"/></g></g></svg>