<svg xmlns="http://www.w3.org/2000/svg" width="319.3" height="53.7" viewBox="0 0 319.3 53.7"><style type="text/css">.st0{fill:#010101;}</style><path class="st0" d="M0 53.7l9.1-.1 6-23.6 2.7 12.7h8.3l4.7-12.7 1 12.6 8.2.1-2.4-33.4h-7.8l-7.2 19.2-4.1-19.2h-7.5l-11 44.4zM81.2 9.1h-9.7l10.4 16.4-12.7 17.1h9.6l7.5-10 6.2 10h10l-10.9-17.1 12-16.4h-9.8l-6.6 9.4-6-9.4zM136 42.6h8.9l2-16.8 7.8 16.8h7.6l4.5-42.6h-8.9l-2.8 25.2-7.4-15.9h-8l-3.7 33.3zM107.8 25.4c0 5.4 4.4 9.8 9.8 9.8s9.8-4.4 9.8-9.8-4.4-9.8-9.8-9.8-9.8 4.4-9.8 9.8zm-8 0c0-9.8 8-17.8 17.8-17.8s17.8 8 17.8 17.8-8 17.8-17.8 17.8c-9.9 0-17.8-8-17.8-17.8zM52.9 29.8l8-2.6-5.5-11.2-2.5 13.8zm-11.1 14.1l7.2-37 8.9-2.5 16 28.6-6.1 8-4.1-8.4-11.9 3.6-1 5.4-9 2.3zM43.2 53.6l2.5-6.5h.9l2.7 6.5h-1l-.8-2h-2.7l-.7 2h-.9zm1.9-2.6h2.2l-.7-1.8c-.2-.5-.4-1-.5-1.3l-.3 1.2-.7 1.9zM52 53.6v-6.5h.9l3.4 5.1v-5.1h.8v6.5h-.9l-3.4-5.1v5.1h-.8zM58.5 53.6v-6.5h4.7v.8h-3.8v2h3.6v.8h-3.6v2.2h4v.8h-4.9zM64.5 53.6v-6.5h1.3l1.5 4.6c.1.4.2.7.3 1 .1-.2.2-.6.3-1l1.6-4.5h1.2v6.5h-.8v-5.4l-1.9 5.3h-.8l-1.9-5.5v5.5h-.8zM72.1 53.6v-6.5h4.7v.8h-3.8v2h3.6v.8h-3.6v2.2h4v.8h-4.9zM79.8 53.6v-5.7h-2.1v-.8h5.1v.8h-2.1v5.7h-.9zM83.4 51.5l.8-.1c0 .3.1.6.3.8.1.2.4.4.7.5.3.1.6.2 1 .2.3 0 .6 0 .9-.1.3-.1.4-.2.6-.4.1-.2.2-.4.2-.6 0-.2-.1-.4-.2-.5-.1-.2-.3-.3-.6-.4-.2-.1-.6-.2-1.2-.3-.6-.1-1-.3-1.3-.4-.3-.2-.5-.4-.7-.6-.2-.2-.2-.5-.2-.8 0-.3.1-.6.3-.9.2-.3.5-.5.8-.6.4-.1.8-.2 1.2-.2.5 0 .9.1 1.3.2.4.2.6.4.8.7s.3.6.3 1h-.9c0-.4-.2-.7-.4-.9-.3-.2-.6-.3-1.1-.3-.5 0-.9.1-1.1.3-.2.2-.4.4-.4.7 0 .2.1.4.3.6.2.2.6.3 1.3.5.7.2 1.2.3 1.4.4.4.2.7.4.8.7.2.3.3.6.3.9 0 .3-.1.7-.3 1-.2.3-.5.5-.9.7-.4.2-.8.3-1.2.3-.6 0-1.1-.1-1.5-.3s-.7-.4-.9-.8-.4-.8-.4-1.3zM94.3 51.4l.9.2c-.2.7-.5 1.2-1 1.6-.5.4-1 .6-1.7.6s-1.3-.1-1.7-.4-.8-.7-1-1.2c-.2-.5-.3-1.1-.3-1.7 0-.7.1-1.3.4-1.8.3-.5.6-.9 1.1-1.1.5-.3 1-.4 1.6-.4.6 0 1.2.2 1.6.5.4.3.8.8.9 1.4l-.8.2c-.2-.5-.4-.8-.7-1-.3-.2-.6-.3-1.1-.3-.5 0-.9.1-1.2.4-.3.2-.6.6-.7 1-.1.4-.2.8-.2 1.2 0 .6.1 1 .2 1.4.2.4.4.7.7.9.3.2.7.3 1.1.3.5 0 .9-.1 1.2-.4.4-.5.6-.9.7-1.4zM96.3 53.6v-6.5h.9v2.7h3.4v-2.7h.9v6.5h-.9v-3.1h-3.4v3.1h-.9zM102.8 53.6v-6.5h4.7v.8h-3.8v2h3.6v.8h-3.6v2.2h4v.8h-4.9zM108.8 53.6v-6.5h.9v3.2l3.2-3.2h1.2l-2.7 2.6 2.8 3.9h-1.2l-2.3-3.3-1.1 1v2.2h-.8zM122 51.4l.9.2c-.2.7-.5 1.2-1 1.6-.5.4-1 .6-1.7.6s-1.3-.1-1.7-.4-.8-.7-1-1.2-.3-1.1-.3-1.7c0-.7.1-1.3.4-1.8.3-.5.6-.9 1.1-1.1.5-.3 1-.4 1.6-.4.6 0 1.2.2 1.6.5.4.3.8.8.9 1.4l-.8.2c-.2-.5-.4-.8-.7-1-.3-.2-.6-.3-1.1-.3-.5 0-.9.1-1.2.4-.3.2-.6.6-.7 1-.1.4-.2.8-.2 1.2 0 .6.1 1 .2 1.4.2.4.4.7.7.9.3.2.7.3 1.1.3.5 0 .9-.1 1.2-.4.4-.5.6-.9.7-1.4zM123.7 50.5c0-1.1.3-1.9.9-2.5.6-.6 1.3-.9 2.2-.9.6 0 1.1.1 1.6.4.5.3.8.7 1.1 1.2.3.5.4 1.1.4 1.7 0 .7-.1 1.2-.4 1.8s-.6.9-1.1 1.2c-.5.3-1 .4-1.6.4-.6 0-1.2-.1-1.6-.4-.5-.3-.8-.7-1.1-1.2-.3-.6-.4-1.2-.4-1.7zm.8 0c0 .8.2 1.4.6 1.8.4.4.9.7 1.6.7.6 0 1.2-.2 1.6-.7.4-.5.6-1.1.6-1.9 0-.5-.1-1-.3-1.4-.2-.4-.4-.7-.8-.9-.3-.2-.7-.3-1.2-.3-.6 0-1.1.2-1.6.6s-.5 1.1-.5 2.1zM130.9 53.6v-6.5h1.3l1.5 4.6c.1.4.2.7.3 1 .1-.2.2-.6.3-1l1.6-4.5h1.2v6.5h-.8v-5.4l-1.9 5.4h-.8l-1.9-5.5v5.5h-.8zM138.5 53.6v-6.5h2.4c.4 0 .8 0 1 .1.3.1.6.2.8.3s.4.4.5.6.2.6.2.9c0 .6-.2 1-.5 1.4-.4.4-1 .6-1.9.6h-1.7v2.6h-.8zm.9-3.4h1.7c.6 0 .9-.1 1.2-.3.2-.2.3-.5.3-.9 0-.3-.1-.5-.2-.7-.1-.2-.3-.3-.5-.4-.1 0-.4-.1-.8-.1h-1.7v2.4zM143.2 53.6l2.5-6.5h.9l2.7 6.5h-1l-.8-2h-2.7l-.7 2h-.9zm1.8-2.6h2.2l-.7-1.8c-.2-.5-.4-1-.5-1.3l-.3 1.2-.7 1.9zM149.9 53.6v-6.5h.9l3.4 5.1v-5.1h.8v6.5h-.9l-3.4-5.1v5.1h-.8zM158.3 53.6v-2.7l-2.5-3.7h1l1.3 2 .7 1.1c.2-.3.4-.7.7-1.1l1.3-1.9h1l-2.6 3.7v2.7h-.9zM198.3 21.8c1 .4 2.3.6 3.3.6 1.8 0 3.3-.8 3.3-2.6 0-1.7-1.6-2.2-3.2-2.2h-1.8v-1.5h1.5c1.9 0 3.3-.5 3.3-2.3 0-1.5-1.5-2-3-2-1 0-2.1.2-3.1.6l-.1-1.6c1.1-.4 2.3-.6 3.5-.6 2.4 0 4.8.8 4.8 3.4 0 1.7-1.1 2.8-2.7 3.2 1.6.2 3 1.3 3 3 0 3-2.7 4.2-5.5 4.2-1.2 0-2.3-.1-3.4-.5l.1-1.7zM211.9 22.2h1.1c3.5 0 5.4-1.7 5.4-5.3 0-3.1-1.6-4.9-4.8-4.9h-1.7v10.2zm-2.2 1.7v-13.4h4.1c4.3 0 6.9 2.1 6.9 6.5 0 4.7-3 6.9-7.5 6.9h-3.5zM228.9 10.5v13.4h2.1v-6h5.2v-1.6h-5.2v-4.2h5.4v-1.6zM244.3 22.4c2.9 0 4-2.8 4-5.3s-1-5.3-4-5.3c-2.9 0-4 2.8-4 5.3 0 1.2.3 2.5.9 3.6.7 1 1.6 1.7 3.1 1.7m-6.3-5.2c0-3.8 2.2-6.9 6.3-6.9 4.2 0 6.3 3 6.3 6.9 0 3.9-2.2 6.9-6.3 6.9-1 0-2-.2-2.8-.5-2.3-1.1-3.5-3.4-3.5-6.4"/><path class="st0" d="M255.2 16.3h1.4c1.5 0 3.1-.6 3.1-2.3 0-1.7-1.4-2-3-2h-1.4v4.3zm-2.1 7.6v-13.4h4c2.4 0 4.8.6 4.8 3.5 0 1.8-1.4 3-3.1 3.2.9.1 1.6.8 2 1.8l2 4.9h-2.4l-1.6-4.2c-.5-1.4-1-1.7-2.4-1.7h-1.1v5.9h-2.2zM269 10.5v1.8h4.1v11.6h2.2v-11.6h4.1v-1.8zM289.8 10.5v5.6h-6v-5.6h-2.2v13.4h2.2v-6h6v6h2.2v-13.4zM295.2 10.5v13.4h7.9v-1.7h-5.8v-4.4h5.3v-1.6h-5.3v-4.1h5.6v-1.6zM201 36.4h1.4c1.5 0 3.1-.6 3.1-2.3 0-1.7-1.4-2-3-2h-1.5v4.3zm-2.2 7.6v-13.5h4c2.4 0 4.8.6 4.8 3.5 0 1.8-1.4 3-3.1 3.2.9.1 1.6.8 2 1.8l2 4.9h-2.4l-1.6-4.2c-.5-1.4-1-1.7-2.4-1.7h-1.1v6h-2.2zM210.5 30.5v13.5h7.9v-1.7h-5.7v-4.4h5.3v-1.6h-5.3v-4.1h5.5v-1.7zM226.3 32.1l2.6 6.7h-5.1l2.5-6.7zm-1.3-1.6l-5.2 13.5h2.1l1.3-3.5h6.2l1.3 3.5h2.3l-5.3-13.4h-2.7zM234.6 30.5v13.5h7.8v-1.9h-5.6v-11.6zM265.3 30.5l-3 11.4-3.1-11.4h-2.3l-3.2 11.4-3-11.4h-2.1l3.7 13.5h2.5l3.2-11.4 3.1 11.4h2.5l3.7-13.5zM274.5 42.5c2.9 0 4-2.8 4-5.3s-1-5.3-4-5.3c-2.9 0-4 2.8-4 5.3 0 1.2.3 2.5.9 3.6.7 1 1.7 1.7 3.1 1.7m-6.3-5.2c0-3.8 2.2-6.9 6.3-6.9 4.2 0 6.3 3 6.3 6.9 0 3.9-2.2 6.9-6.3 6.9-1 0-2-.2-2.8-.5-2.3-1.1-3.5-3.4-3.5-6.4"/><path class="st0" d="M285 36.4h1.4c1.5 0 3.1-.6 3.1-2.3 0-1.7-1.4-2-3-2h-1.5v4.3zm-2.1 7.6v-13.5h4c2.4 0 4.8.6 4.8 3.5 0 1.8-1.4 3-3.1 3.2.9.1 1.6.8 2 1.8l2 4.9h-2.4l-1.6-4.2c-.5-1.4-1-1.7-2.4-1.7h-1.2v6h-2.1zM294.6 30.5v13.5h7.8v-1.9h-5.6v-11.6zM306.5 42.3h1.1c3.5 0 5.4-1.7 5.4-5.3 0-3.1-1.6-4.9-4.8-4.9h-1.7v10.2zm-2.2 1.7v-13.5h4.1c4.3 0 6.9 2.1 6.9 6.5 0 4.7-3 6.9-7.5 6.9h-3.5zM317.2 41.9h2.2v2.1h-2.2z"/></svg>