<?xml version="1.0" encoding="utf-8"?>
<!-- Generator: Adobe Illustrator 19.2.1, SVG Export Plug-In . SVG Version: 6.00 Build 0)  -->
<svg version="1.1" id="Ebene_1" xmlns="http://www.w3.org/2000/svg" xmlns:xlink="http://www.w3.org/1999/xlink" x="0px" y="0px"
	 viewBox="0 0 595.3 181.5" style="enable-background:new 0 0 595.3 181.5;" xml:space="preserve">
<style type="text/css">
	.st0{fill:#FFFFFF;}
</style>
<g>
	<path class="st0" d="M57,24.2h16.4l11.5,36.6l11.3-36.6h16L93.3,75.1H76.2L57,24.2z"/>
	<path class="st0" d="M110.6,51.1h20.6V62h-20.6V51.1z"/>
	<path class="st0" d="M138.2,75.1V24.2h26.2c4.9,0,8.6,0.4,11.1,1.3c2.6,0.8,4.6,2.4,6.2,4.6c1.6,2.3,2.4,5,2.4,8.2
		c0,2.8-0.6,5.3-1.8,7.3c-1.2,2-2.9,3.7-5,5c-1.3,0.8-3.2,1.5-5.5,2c1.9,0.6,3.2,1.3,4.1,1.9c0.6,0.4,1.4,1.3,2.5,2.7
		c1.1,1.4,1.8,2.4,2.2,3.2l7.6,14.8h-17.8l-8.4-15.6c-1.1-2-2-3.3-2.8-3.9c-1.1-0.8-2.4-1.2-3.9-1.2H154v20.7H138.2z M154,44.8h6.6
		c0.7,0,2.1-0.2,4.2-0.7c1-0.2,1.9-0.7,2.6-1.6c0.7-0.9,1-1.8,1-3c0-1.6-0.5-2.9-1.6-3.8c-1-0.9-3-1.3-5.9-1.3H154V44.8z"/>
	<path class="st0" d="M224.6,66.7h-17.9l-2.5,8.4h-16.1l19.1-50.9h17.2l19.1,50.9h-16.5L224.6,66.7z M221.3,55.7l-5.6-18.3
		l-5.6,18.3H221.3z"/>
	<path class="st0" d="M237.4,24.2h17.5l10.3,17.2l10.3-17.2h17.4L273,53.8v21.3h-15.8V53.8L237.4,24.2z"/>
	<path class="st0" d="M298.9,75.1v-32h-5.5v-4.9h5.5v-3.9c0-2.5,0.2-4.3,0.7-5.5c0.6-1.6,1.7-2.9,3.2-3.9c1.5-1,3.6-1.5,6.4-1.5
		c1.8,0,3.7,0.2,5.8,0.6l-0.9,5.5c-1.3-0.2-2.5-0.3-3.7-0.3c-1.9,0-3.2,0.4-4,1.2c-0.8,0.8-1.2,2.3-1.2,4.5v3.4h7.2v4.9h-7.2v32
		H298.9z"/>
	<path class="st0" d="M314.8,56.7c0-6.8,1.9-11.9,5.7-15.2c3.2-2.7,7-4.1,11.6-4.1c5.1,0,9.2,1.7,12.4,5c3.2,3.3,4.8,7.9,4.8,13.8
		c0,4.7-0.7,8.5-2.1,11.2c-1.4,2.7-3.5,4.8-6.2,6.3s-5.7,2.3-8.9,2.3c-5.2,0-9.3-1.7-12.5-5S314.8,62.9,314.8,56.7z M321.2,56.7
		c0,4.7,1,8.3,3.1,10.6c2.1,2.4,4.7,3.5,7.8,3.5c3.1,0,5.7-1.2,7.7-3.5c2.1-2.4,3.1-6,3.1-10.8c0-4.6-1-8-3.1-10.4
		c-2.1-2.3-4.6-3.5-7.7-3.5c-3.1,0-5.7,1.2-7.8,3.5C322.3,48.4,321.2,51.9,321.2,56.7z"/>
	<path class="st0" d="M356.6,75.1V38.2h5.6v5.6c1.4-2.6,2.8-4.3,4-5.2c1.2-0.8,2.6-1.3,4-1.3c2.1,0,4.2,0.7,6.4,2l-2.2,5.8
		c-1.5-0.9-3.1-1.4-4.6-1.4c-1.4,0-2.6,0.4-3.7,1.2c-1.1,0.8-1.9,2-2.3,3.4c-0.7,2.2-1,4.7-1,7.3v19.3H356.6z"/>
	<path class="st0" d="M414.8,54.3l13.8,4.2c-0.9,3.9-2.4,7.1-4.4,9.7c-2,2.6-4.5,4.5-7.4,5.9c-3,1.3-6.7,2-11.3,2
		c-5.5,0-10.1-0.8-13.6-2.4c-3.5-1.6-6.5-4.4-9.1-8.5c-2.5-4-3.8-9.2-3.8-15.5c0-8.4,2.2-14.9,6.7-19.4c4.5-4.5,10.8-6.8,19-6.8
		c6.4,0,11.5,1.3,15.1,3.9c3.7,2.6,6.4,6.6,8.2,11.9l-13.9,3.1c-0.5-1.6-1-2.7-1.5-3.4c-0.9-1.2-2-2.1-3.2-2.8c-1.3-0.6-2.7-1-4.3-1
		c-3.6,0-6.3,1.4-8.2,4.3c-1.4,2.1-2.2,5.5-2.2,10c0,5.6,0.9,9.5,2.6,11.6c1.7,2.1,4.1,3.1,7.2,3.1c3,0,5.3-0.8,6.8-2.5
		C413,59.9,414.1,57.5,414.8,54.3z"/>
	<path class="st0" d="M458.3,65.6h-25.8V53.9l25.8-30.6h12.3v31.3h6.4v11h-6.4v9.5h-12.3V65.6z M458.3,54.6v-16l-13.6,16H458.3z"/>
	<path class="st0" d="M483.9,24.2h23.4c4.6,0,8.3,0.6,11.2,1.9c2.8,1.3,5.2,3,7,5.4c1.9,2.3,3.2,5.1,4,8.2c0.8,3.1,1.3,6.4,1.3,9.9
		c0,5.4-0.6,9.7-1.9,12.7c-1.2,3-3,5.5-5.2,7.5s-4.6,3.4-7.1,4c-3.5,0.9-6.6,1.4-9.4,1.4h-23.4V24.2z M499.6,35.7v27.8h3.9
		c3.3,0,5.6-0.4,7-1.1c1.4-0.7,2.5-2,3.3-3.8c0.8-1.8,1.2-4.8,1.2-8.8c0-5.4-0.9-9.1-2.6-11.1c-1.8-2-4.7-3-8.8-3H499.6z"/>
</g>
<g>
	<path class="st0" d="M85.1,94.4h-3.8l-0.5,1.8h-3.4l4-10.8H85l4,10.8h-3.5L85.1,94.4z M84.4,92l-1.2-3.9L82,92H84.4z"/>
	<path class="st0" d="M98.2,85.4v10.8h-2.8V95c-0.4,0.5-0.7,0.8-1.1,1c-0.4,0.2-0.9,0.3-1.4,0.3c-1.1,0-1.9-0.4-2.4-1.2
		c-0.6-0.8-0.8-1.8-0.8-2.9c0-1.3,0.3-2.3,0.9-3s1.4-1,2.4-1c0.5,0,0.9,0.1,1.3,0.2c0.4,0.2,0.7,0.4,1,0.7v-3.7H98.2z M95.2,92.2
		c0-0.6-0.1-1.1-0.4-1.4c-0.3-0.3-0.6-0.5-1-0.5c-0.3,0-0.6,0.1-0.9,0.4c-0.2,0.3-0.4,0.8-0.4,1.5c0,0.6,0.1,1.1,0.4,1.4
		c0.2,0.3,0.5,0.4,0.9,0.4c0.4,0,0.7-0.1,1-0.4S95.2,92.9,95.2,92.2z"/>
	<path class="st0" d="M99.1,88.4h3.1l1.5,4.9l1.6-4.9h3l-3.3,7.8h-2.7L99.1,88.4z"/>
	<path class="st0" d="M111.9,90.9l-2.9-0.3c0.1-0.5,0.3-0.9,0.5-1.2c0.2-0.3,0.5-0.5,0.9-0.7c0.3-0.2,0.7-0.3,1.1-0.4
		c0.5-0.1,1-0.1,1.6-0.1c0.9,0,1.6,0.1,2.2,0.2c0.5,0.1,1,0.3,1.4,0.6c0.3,0.2,0.5,0.5,0.6,0.9c0.1,0.4,0.2,0.8,0.2,1.2v3.4
		c0,0.4,0,0.7,0.1,0.9c0,0.2,0.1,0.5,0.3,0.8H115c-0.1-0.2-0.2-0.4-0.2-0.5s-0.1-0.3-0.1-0.5c-0.4,0.4-0.8,0.6-1.2,0.8
		c-0.5,0.2-1.1,0.3-1.8,0.3c-0.9,0-1.6-0.2-2.1-0.6c-0.5-0.4-0.7-1-0.7-1.6c0-0.6,0.2-1.1,0.5-1.5c0.3-0.4,1-0.7,1.9-0.9
		c1.1-0.2,1.8-0.4,2.2-0.5s0.7-0.2,1.1-0.4c0-0.4-0.1-0.6-0.2-0.8c-0.2-0.1-0.4-0.2-0.8-0.2c-0.5,0-0.9,0.1-1.1,0.2
		C112.2,90.3,112,90.5,111.9,90.9z M114.5,92.5c-0.4,0.1-0.8,0.3-1.3,0.4c-0.6,0.2-1,0.3-1.2,0.5c-0.2,0.2-0.3,0.3-0.3,0.6
		c0,0.2,0.1,0.4,0.2,0.6c0.2,0.1,0.4,0.2,0.7,0.2c0.3,0,0.6-0.1,0.9-0.2c0.3-0.2,0.5-0.4,0.6-0.6c0.1-0.2,0.2-0.5,0.2-0.9V92.5z"/>
	<path class="st0" d="M119.2,88.4h2.8v1.3c0.4-0.5,0.8-0.9,1.3-1.1s0.9-0.3,1.6-0.3c0.8,0,1.5,0.2,1.9,0.7c0.5,0.5,0.7,1.3,0.7,2.3
		v5h-3v-4.3c0-0.5-0.1-0.8-0.3-1s-0.4-0.3-0.8-0.3c-0.4,0-0.7,0.1-0.9,0.4s-0.3,0.8-0.3,1.5v3.7h-3V88.4z"/>
	<path class="st0" d="M135.1,93.1l2.8,0.3c-0.2,0.6-0.4,1.1-0.8,1.5c-0.4,0.4-0.8,0.8-1.4,1c-0.6,0.2-1.3,0.4-2.1,0.4
		c-0.8,0-1.5-0.1-2.1-0.2s-1-0.4-1.4-0.7s-0.7-0.8-0.9-1.2c-0.2-0.5-0.3-1.1-0.3-1.9c0-0.8,0.1-1.5,0.4-2c0.2-0.4,0.5-0.7,0.8-1.1
		c0.3-0.3,0.7-0.5,1.1-0.7c0.6-0.2,1.3-0.4,2.2-0.4c1.3,0,2.2,0.2,2.9,0.7c0.7,0.5,1.1,1.1,1.4,2l-2.8,0.4c-0.1-0.3-0.2-0.6-0.5-0.8
		c-0.2-0.2-0.5-0.3-0.9-0.3c-0.5,0-0.9,0.2-1.2,0.5s-0.5,0.9-0.5,1.6c0,0.6,0.2,1.1,0.5,1.5c0.3,0.3,0.7,0.5,1.2,0.5
		c0.4,0,0.7-0.1,1-0.3S134.9,93.5,135.1,93.1z"/>
	<path class="st0" d="M147.9,93h-6c0.1,0.5,0.2,0.8,0.4,1.1c0.3,0.3,0.7,0.5,1.1,0.5c0.3,0,0.6-0.1,0.8-0.2c0.2-0.1,0.3-0.3,0.5-0.5
		l2.9,0.3c-0.5,0.8-1,1.3-1.6,1.7c-0.6,0.3-1.6,0.5-2.7,0.5c-1,0-1.8-0.1-2.4-0.4c-0.6-0.3-1.1-0.8-1.5-1.4
		c-0.4-0.6-0.6-1.4-0.6-2.2c0-1.2,0.4-2.2,1.2-3c0.8-0.8,1.9-1.1,3.2-1.1c1.1,0,2,0.2,2.6,0.5c0.6,0.3,1.1,0.8,1.5,1.5
		c0.3,0.6,0.5,1.5,0.5,2.5V93z M144.9,91.6c-0.1-0.6-0.2-1-0.5-1.2c-0.3-0.3-0.6-0.4-1-0.4c-0.5,0-0.9,0.2-1.1,0.6
		c-0.2,0.2-0.3,0.6-0.3,1.1H144.9z"/>
	<path class="st0" d="M157.5,85.4v10.8h-2.8V95c-0.4,0.5-0.7,0.8-1.1,1c-0.4,0.2-0.9,0.3-1.4,0.3c-1.1,0-1.9-0.4-2.4-1.2
		c-0.6-0.8-0.8-1.8-0.8-2.9c0-1.3,0.3-2.3,0.9-3s1.4-1,2.4-1c0.5,0,0.9,0.1,1.3,0.2c0.4,0.2,0.7,0.4,1,0.7v-3.7H157.5z M154.5,92.2
		c0-0.6-0.1-1.1-0.4-1.4c-0.3-0.3-0.6-0.5-1-0.5c-0.3,0-0.6,0.1-0.9,0.4c-0.2,0.3-0.4,0.8-0.4,1.5c0,0.6,0.1,1.1,0.4,1.4
		c0.2,0.3,0.5,0.4,0.9,0.4c0.4,0,0.7-0.1,1-0.4S154.5,92.9,154.5,92.2z"/>
	<path class="st0" d="M164.4,99.1V88.4h2.8v1.2c0.4-0.5,0.7-0.8,1.1-1c0.4-0.2,0.9-0.3,1.4-0.3c1,0,1.9,0.4,2.4,1.2s0.9,1.8,0.9,3
		c0,1.3-0.3,2.3-0.9,3s-1.4,1-2.4,1c-0.5,0-0.9-0.1-1.3-0.2c-0.4-0.2-0.7-0.4-1-0.7v3.7H164.4z M167.4,92.3c0,0.6,0.1,1.1,0.4,1.4
		c0.3,0.3,0.6,0.4,1,0.4c0.3,0,0.6-0.1,0.9-0.4s0.4-0.8,0.4-1.5c0-0.6-0.1-1.1-0.4-1.4c-0.2-0.3-0.5-0.4-0.9-0.4
		c-0.4,0-0.7,0.1-1,0.4C167.5,91.1,167.4,91.6,167.4,92.3z"/>
	<path class="st0" d="M174.4,85.4h3v4c0.4-0.4,0.8-0.7,1.2-0.9c0.4-0.2,0.9-0.3,1.4-0.3c0.8,0,1.5,0.2,1.9,0.7
		c0.5,0.5,0.7,1.3,0.7,2.3v5h-3v-4.3c0-0.5-0.1-0.8-0.3-1s-0.4-0.3-0.8-0.3c-0.4,0-0.7,0.1-0.9,0.4s-0.3,0.8-0.3,1.5v3.7h-3V85.4z"
		/>
	<path class="st0" d="M183.6,88.4h3.2l1.6,5.2l1.5-5.2h2.9l-3.1,8.3c-0.4,1-0.7,1.6-1.1,1.9c-0.5,0.5-1.3,0.7-2.4,0.7
		c-0.4,0-1.1-0.1-2-0.2l-0.2-2.1c0.4,0.1,0.9,0.2,1.4,0.2c0.4,0,0.6-0.1,0.9-0.2c0.2-0.2,0.4-0.5,0.6-0.9L183.6,88.4z"/>
	<path class="st0" d="M193.1,94l3-0.3c0.1,0.4,0.3,0.6,0.5,0.8c0.2,0.2,0.5,0.2,0.9,0.2c0.4,0,0.7-0.1,0.9-0.3
		c0.2-0.1,0.3-0.3,0.3-0.5c0-0.2-0.1-0.4-0.3-0.5c-0.2-0.1-0.6-0.2-1.3-0.3c-1-0.2-1.8-0.3-2.2-0.5c-0.4-0.2-0.7-0.4-1-0.8
		c-0.3-0.4-0.4-0.8-0.4-1.3c0-0.5,0.1-1,0.4-1.3c0.3-0.4,0.7-0.6,1.2-0.8c0.5-0.2,1.2-0.3,2.1-0.3c0.9,0,1.6,0.1,2.1,0.2
		c0.4,0.1,0.8,0.4,1.1,0.7s0.5,0.7,0.7,1.2l-2.8,0.3c-0.1-0.2-0.2-0.4-0.4-0.6c-0.2-0.2-0.5-0.2-0.9-0.2c-0.3,0-0.6,0.1-0.7,0.2
		c-0.2,0.1-0.2,0.3-0.2,0.4c0,0.2,0.1,0.3,0.3,0.4c0.2,0.1,0.6,0.2,1.3,0.3c1,0.1,1.7,0.3,2.2,0.5c0.5,0.2,0.9,0.5,1.1,0.9
		c0.3,0.4,0.4,0.8,0.4,1.2c0,0.5-0.1,0.9-0.4,1.3c-0.3,0.4-0.7,0.8-1.3,1c-0.6,0.3-1.4,0.4-2.4,0.4c-1.4,0-2.4-0.2-3-0.6
		S193.3,94.7,193.1,94z"/>
	<path class="st0" d="M202.9,85.4h3v2h-3V85.4z M202.9,88.4h3v7.8h-3V88.4z"/>
	<path class="st0" d="M213.7,93.1l2.8,0.3c-0.2,0.6-0.4,1.1-0.8,1.5c-0.4,0.4-0.8,0.8-1.4,1c-0.6,0.2-1.3,0.4-2.1,0.4
		c-0.8,0-1.5-0.1-2.1-0.2s-1-0.4-1.4-0.7s-0.7-0.8-0.9-1.2c-0.2-0.5-0.3-1.1-0.3-1.9c0-0.8,0.1-1.5,0.4-2c0.2-0.4,0.5-0.7,0.8-1.1
		c0.3-0.3,0.7-0.5,1.1-0.7c0.6-0.2,1.3-0.4,2.2-0.4c1.3,0,2.2,0.2,2.9,0.7c0.7,0.5,1.1,1.1,1.4,2l-2.8,0.4c-0.1-0.3-0.2-0.6-0.5-0.8
		c-0.2-0.2-0.5-0.3-0.9-0.3c-0.5,0-0.9,0.2-1.2,0.5s-0.5,0.9-0.5,1.6c0,0.6,0.2,1.1,0.5,1.5c0.3,0.3,0.7,0.5,1.2,0.5
		c0.4,0,0.7-0.1,1-0.3S213.5,93.5,213.7,93.1z"/>
	<path class="st0" d="M220.6,90.9l-2.9-0.3c0.1-0.5,0.3-0.9,0.5-1.2c0.2-0.3,0.5-0.5,0.9-0.7c0.3-0.2,0.7-0.3,1.1-0.4
		c0.5-0.1,1-0.1,1.6-0.1c0.9,0,1.6,0.1,2.2,0.2c0.5,0.1,1,0.3,1.4,0.6c0.3,0.2,0.5,0.5,0.6,0.9c0.1,0.4,0.2,0.8,0.2,1.2v3.4
		c0,0.4,0,0.7,0.1,0.9c0,0.2,0.1,0.5,0.3,0.8h-2.8c-0.1-0.2-0.2-0.4-0.2-0.5s-0.1-0.3-0.1-0.5c-0.4,0.4-0.8,0.6-1.2,0.8
		c-0.5,0.2-1.1,0.3-1.8,0.3c-0.9,0-1.6-0.2-2.1-0.6c-0.5-0.4-0.7-1-0.7-1.6c0-0.6,0.2-1.1,0.5-1.5c0.3-0.4,1-0.7,1.9-0.9
		c1.1-0.2,1.8-0.4,2.2-0.5s0.7-0.2,1.1-0.4c0-0.4-0.1-0.6-0.2-0.8c-0.2-0.1-0.4-0.2-0.8-0.2c-0.5,0-0.9,0.1-1.1,0.2
		C220.9,90.3,220.7,90.5,220.6,90.9z M223.2,92.5c-0.4,0.1-0.8,0.3-1.3,0.4c-0.6,0.2-1,0.3-1.2,0.5c-0.2,0.2-0.3,0.3-0.3,0.6
		c0,0.2,0.1,0.4,0.2,0.6c0.2,0.1,0.4,0.2,0.7,0.2c0.3,0,0.6-0.1,0.9-0.2c0.3-0.2,0.5-0.4,0.6-0.6c0.1-0.2,0.2-0.5,0.2-0.9V92.5z"/>
	<path class="st0" d="M228,85.4h3v10.8h-3V85.4z"/>
	<path class="st0" d="M233,85.4h3v10.8h-3V85.4z"/>
	<path class="st0" d="M237.3,88.4h3.2l1.6,5.2l1.5-5.2h2.9l-3.1,8.3c-0.4,1-0.7,1.6-1.1,1.9c-0.5,0.5-1.3,0.7-2.4,0.7
		c-0.4,0-1.1-0.1-2-0.2l-0.2-2.1c0.4,0.1,0.9,0.2,1.4,0.2c0.4,0,0.6-0.1,0.9-0.2c0.2-0.2,0.4-0.5,0.6-0.9L237.3,88.4z"/>
	<path class="st0" d="M252.4,85.4h3v3.7c0.3-0.3,0.6-0.5,1-0.7c0.4-0.2,0.8-0.2,1.3-0.2c1,0,1.7,0.3,2.4,1s0.9,1.7,0.9,2.9
		c0,0.9-0.1,1.6-0.4,2.3s-0.7,1.1-1.2,1.5c-0.5,0.3-1.1,0.5-1.7,0.5c-0.5,0-1-0.1-1.4-0.3c-0.3-0.2-0.7-0.5-1.1-1v1.2h-2.8V85.4z
		 M255.4,92.2c0,0.7,0.1,1.2,0.4,1.5c0.3,0.3,0.6,0.5,1,0.5c0.4,0,0.7-0.1,0.9-0.4c0.2-0.3,0.4-0.8,0.4-1.5c0-0.6-0.1-1.1-0.4-1.4
		c-0.2-0.3-0.5-0.4-0.9-0.4c-0.4,0-0.7,0.2-1,0.5C255.6,91.2,255.4,91.6,255.4,92.2z"/>
	<path class="st0" d="M265.2,90.9l-2.9-0.3c0.1-0.5,0.3-0.9,0.5-1.2c0.2-0.3,0.5-0.5,0.9-0.7c0.3-0.2,0.7-0.3,1.1-0.4
		c0.5-0.1,1-0.1,1.6-0.1c0.9,0,1.6,0.1,2.2,0.2c0.5,0.1,1,0.3,1.4,0.6c0.3,0.2,0.5,0.5,0.6,0.9c0.1,0.4,0.2,0.8,0.2,1.2v3.4
		c0,0.4,0,0.7,0.1,0.9c0,0.2,0.1,0.5,0.3,0.8h-2.8c-0.1-0.2-0.2-0.4-0.2-0.5s-0.1-0.3-0.1-0.5c-0.4,0.4-0.8,0.6-1.2,0.8
		c-0.5,0.2-1.1,0.3-1.8,0.3c-0.9,0-1.6-0.2-2.1-0.6c-0.5-0.4-0.7-1-0.7-1.6c0-0.6,0.2-1.1,0.5-1.5c0.3-0.4,1-0.7,1.9-0.9
		c1.1-0.2,1.8-0.4,2.2-0.5s0.7-0.2,1.1-0.4c0-0.4-0.1-0.6-0.2-0.8c-0.2-0.1-0.4-0.2-0.8-0.2c-0.5,0-0.9,0.1-1.1,0.2
		C265.5,90.3,265.3,90.5,265.2,90.9z M267.8,92.5c-0.4,0.1-0.8,0.3-1.3,0.4c-0.6,0.2-1,0.3-1.2,0.5c-0.2,0.2-0.3,0.3-0.3,0.6
		c0,0.2,0.1,0.4,0.2,0.6c0.2,0.1,0.4,0.2,0.7,0.2c0.3,0,0.6-0.1,0.9-0.2c0.3-0.2,0.5-0.4,0.6-0.6c0.1-0.2,0.2-0.5,0.2-0.9V92.5z"/>
	<path class="st0" d="M272,94l3-0.3c0.1,0.4,0.3,0.6,0.5,0.8c0.2,0.2,0.5,0.2,0.9,0.2c0.4,0,0.7-0.1,0.9-0.3
		c0.2-0.1,0.3-0.3,0.3-0.5c0-0.2-0.1-0.4-0.3-0.5c-0.2-0.1-0.6-0.2-1.3-0.3c-1-0.2-1.8-0.3-2.2-0.5c-0.4-0.2-0.7-0.4-1-0.8
		c-0.3-0.4-0.4-0.8-0.4-1.3c0-0.5,0.1-1,0.4-1.3c0.3-0.4,0.7-0.6,1.2-0.8c0.5-0.2,1.2-0.3,2.1-0.3c0.9,0,1.6,0.1,2.1,0.2
		c0.4,0.1,0.8,0.4,1.1,0.7s0.5,0.7,0.7,1.2l-2.8,0.3c-0.1-0.2-0.2-0.4-0.4-0.6c-0.2-0.2-0.5-0.2-0.9-0.2c-0.3,0-0.6,0.1-0.7,0.2
		c-0.2,0.1-0.2,0.3-0.2,0.4c0,0.2,0.1,0.3,0.3,0.4c0.2,0.1,0.6,0.2,1.3,0.3c1,0.1,1.7,0.3,2.2,0.5c0.5,0.2,0.9,0.5,1.1,0.9
		c0.3,0.4,0.4,0.8,0.4,1.2c0,0.5-0.1,0.9-0.4,1.3c-0.3,0.4-0.7,0.8-1.3,1c-0.6,0.3-1.4,0.4-2.4,0.4c-1.4,0-2.4-0.2-3-0.6
		S272.1,94.7,272,94z"/>
	<path class="st0" d="M290.3,93h-6c0.1,0.5,0.2,0.8,0.4,1.1c0.3,0.3,0.7,0.5,1.1,0.5c0.3,0,0.6-0.1,0.8-0.2c0.2-0.1,0.3-0.3,0.5-0.5
		l2.9,0.3c-0.5,0.8-1,1.3-1.6,1.7c-0.6,0.3-1.6,0.5-2.7,0.5c-1,0-1.8-0.1-2.4-0.4c-0.6-0.3-1.1-0.8-1.5-1.4
		c-0.4-0.6-0.6-1.4-0.6-2.2c0-1.2,0.4-2.2,1.2-3c0.8-0.8,1.9-1.1,3.2-1.1c1.1,0,2,0.2,2.6,0.5c0.6,0.3,1.1,0.8,1.5,1.5
		c0.3,0.6,0.5,1.5,0.5,2.5V93z M287.3,91.6c-0.1-0.6-0.2-1-0.5-1.2c-0.3-0.3-0.6-0.4-1-0.4c-0.5,0-0.9,0.2-1.1,0.6
		c-0.2,0.2-0.3,0.6-0.3,1.1H287.3z"/>
	<path class="st0" d="M299.9,85.4v10.8h-2.8V95c-0.4,0.5-0.7,0.8-1.1,1c-0.4,0.2-0.9,0.3-1.4,0.3c-1.1,0-1.9-0.4-2.4-1.2
		c-0.6-0.8-0.8-1.8-0.8-2.9c0-1.3,0.3-2.3,0.9-3s1.4-1,2.4-1c0.5,0,0.9,0.1,1.3,0.2c0.4,0.2,0.7,0.4,1,0.7v-3.7H299.9z M296.9,92.2
		c0-0.6-0.1-1.1-0.4-1.4c-0.3-0.3-0.6-0.5-1-0.5c-0.3,0-0.6,0.1-0.9,0.4c-0.2,0.3-0.4,0.8-0.4,1.5c0,0.6,0.1,1.1,0.4,1.4
		c0.2,0.3,0.5,0.4,0.9,0.4c0.4,0,0.7-0.1,1-0.4S296.9,92.9,296.9,92.2z"/>
	<path class="st0" d="M306.8,88.4h2.8v1.3c0.3-0.6,0.5-0.9,0.8-1.1c0.3-0.2,0.6-0.3,1.1-0.3c0.4,0,0.9,0.1,1.4,0.4l-0.9,2.1
		c-0.4-0.1-0.6-0.2-0.8-0.2c-0.4,0-0.7,0.2-0.9,0.5c-0.3,0.5-0.5,1.3-0.5,2.6v2.6h-3V88.4z"/>
	<path class="st0" d="M322.4,93h-6c0.1,0.5,0.2,0.8,0.4,1.1c0.3,0.3,0.7,0.5,1.1,0.5c0.3,0,0.6-0.1,0.8-0.2c0.2-0.1,0.3-0.3,0.5-0.5
		l2.9,0.3c-0.5,0.8-1,1.3-1.6,1.7c-0.6,0.3-1.5,0.5-2.7,0.5c-1,0-1.8-0.1-2.4-0.4c-0.6-0.3-1.1-0.8-1.5-1.4
		c-0.4-0.6-0.6-1.4-0.6-2.2c0-1.2,0.4-2.2,1.2-3c0.8-0.8,1.9-1.1,3.2-1.1c1.1,0,2,0.2,2.6,0.5s1.1,0.8,1.5,1.5
		c0.3,0.6,0.5,1.5,0.5,2.5V93z M319.3,91.6c-0.1-0.6-0.2-1-0.5-1.2c-0.3-0.3-0.6-0.4-1-0.4c-0.5,0-0.9,0.2-1.1,0.6
		c-0.2,0.2-0.3,0.6-0.3,1.1H319.3z"/>
	<path class="st0" d="M323.7,88.4h2.8v1.3c0.4-0.5,0.8-0.9,1.3-1.1c0.4-0.2,0.9-0.3,1.6-0.3c0.8,0,1.5,0.2,1.9,0.7s0.7,1.3,0.7,2.3
		v5h-3v-4.3c0-0.5-0.1-0.8-0.3-1c-0.2-0.2-0.4-0.3-0.8-0.3c-0.4,0-0.7,0.1-0.9,0.4s-0.3,0.8-0.3,1.5v3.7h-3V88.4z"/>
	<path class="st0" d="M342,85.4v10.8h-2.8V95c-0.4,0.5-0.7,0.8-1.1,1c-0.4,0.2-0.9,0.3-1.4,0.3c-1.1,0-1.9-0.4-2.4-1.2
		c-0.6-0.8-0.8-1.8-0.8-2.9c0-1.3,0.3-2.3,0.9-3c0.6-0.7,1.4-1,2.4-1c0.5,0,0.9,0.1,1.3,0.2c0.4,0.2,0.7,0.4,1,0.7v-3.7H342z
		 M339,92.2c0-0.6-0.1-1.1-0.4-1.4c-0.3-0.3-0.6-0.5-1-0.5c-0.3,0-0.6,0.1-0.9,0.4c-0.2,0.3-0.4,0.8-0.4,1.5c0,0.6,0.1,1.1,0.4,1.4
		c0.2,0.3,0.5,0.4,0.9,0.4c0.4,0,0.7-0.1,1-0.4C338.9,93.4,339,92.9,339,92.2z"/>
	<path class="st0" d="M352.5,93h-6c0.1,0.5,0.2,0.8,0.4,1.1c0.3,0.3,0.7,0.5,1.1,0.5c0.3,0,0.6-0.1,0.8-0.2c0.2-0.1,0.3-0.3,0.5-0.5
		l2.9,0.3c-0.5,0.8-1,1.3-1.6,1.7c-0.6,0.3-1.5,0.5-2.7,0.5c-1,0-1.8-0.1-2.4-0.4c-0.6-0.3-1.1-0.8-1.5-1.4
		c-0.4-0.6-0.6-1.4-0.6-2.2c0-1.2,0.4-2.2,1.2-3c0.8-0.8,1.9-1.1,3.2-1.1c1.1,0,2,0.2,2.6,0.5s1.1,0.8,1.5,1.5
		c0.3,0.6,0.5,1.5,0.5,2.5V93z M349.4,91.6c-0.1-0.6-0.2-1-0.5-1.2c-0.3-0.3-0.6-0.4-1-0.4c-0.5,0-0.9,0.2-1.1,0.6
		c-0.2,0.2-0.3,0.6-0.3,1.1H349.4z"/>
	<path class="st0" d="M353.9,88.4h2.8v1.3c0.3-0.6,0.5-0.9,0.8-1.1c0.3-0.2,0.6-0.3,1.1-0.3c0.4,0,0.9,0.1,1.4,0.4l-0.9,2.1
		c-0.4-0.1-0.6-0.2-0.8-0.2c-0.4,0-0.7,0.2-0.9,0.5c-0.3,0.5-0.5,1.3-0.5,2.6v2.6h-3V88.4z"/>
	<path class="st0" d="M360.6,85.4h3v2h-3V85.4z M360.6,88.4h3v7.8h-3V88.4z"/>
	<path class="st0" d="M365.5,88.4h2.8v1.3c0.4-0.5,0.8-0.9,1.3-1.1c0.4-0.2,0.9-0.3,1.6-0.3c0.8,0,1.5,0.2,1.9,0.7s0.7,1.3,0.7,2.3
		v5h-3v-4.3c0-0.5-0.1-0.8-0.3-1c-0.2-0.2-0.4-0.3-0.8-0.3c-0.4,0-0.7,0.1-0.9,0.4s-0.3,0.8-0.3,1.5v3.7h-3V88.4z"/>
	<path class="st0" d="M381,88.4h2.8v7.4l0,0.3c0,0.5-0.1,1-0.3,1.4c-0.2,0.4-0.5,0.8-0.8,1.1c-0.3,0.3-0.8,0.5-1.3,0.6
		c-0.5,0.1-1.1,0.2-1.8,0.2c-1.6,0-2.6-0.2-3.2-0.7c-0.6-0.5-0.9-1.1-0.9-1.9c0-0.1,0-0.2,0-0.4l2.9,0.3c0.1,0.3,0.2,0.5,0.3,0.6
		c0.2,0.2,0.5,0.2,0.8,0.2c0.4,0,0.8-0.1,1-0.3c0.2-0.2,0.3-0.6,0.3-1.2v-1.2c-0.3,0.3-0.6,0.6-0.9,0.8c-0.5,0.2-1,0.4-1.5,0.4
		c-1,0-1.9-0.5-2.5-1.4c-0.5-0.6-0.7-1.5-0.7-2.6c0-1.2,0.3-2.1,0.9-2.8s1.4-1,2.3-1c0.6,0,1.1,0.1,1.5,0.3c0.4,0.2,0.8,0.5,1.1,1
		V88.4z M378.2,92.1c0,0.6,0.1,1,0.4,1.3s0.6,0.4,0.9,0.4c0.4,0,0.7-0.1,0.9-0.4c0.3-0.3,0.4-0.7,0.4-1.3c0-0.6-0.1-1-0.4-1.3
		c-0.3-0.3-0.6-0.5-1-0.5s-0.7,0.1-0.9,0.4C378.3,91,378.2,91.5,378.2,92.1z"/>
	<path class="st0" d="M390.7,85.4h3v2h-3V85.4z M390.7,88.4h3v7.8h-3V88.4z"/>
	<path class="st0" d="M395.6,88.4h2.8v1.3c0.4-0.5,0.8-0.9,1.3-1.1c0.4-0.2,0.9-0.3,1.6-0.3c0.8,0,1.5,0.2,1.9,0.7s0.7,1.3,0.7,2.3
		v5h-3v-4.3c0-0.5-0.1-0.8-0.3-1c-0.2-0.2-0.4-0.3-0.8-0.3c-0.4,0-0.7,0.1-0.9,0.4s-0.3,0.8-0.3,1.5v3.7h-3V88.4z"/>
	<path class="st0" d="M405.2,94l3-0.3c0.1,0.4,0.3,0.6,0.5,0.8c0.2,0.2,0.5,0.2,0.9,0.2c0.4,0,0.7-0.1,0.9-0.3
		c0.2-0.1,0.3-0.3,0.3-0.5c0-0.2-0.1-0.4-0.3-0.5c-0.2-0.1-0.6-0.2-1.3-0.3c-1-0.2-1.8-0.3-2.2-0.5c-0.4-0.2-0.7-0.4-1-0.8
		c-0.3-0.4-0.4-0.8-0.4-1.3c0-0.5,0.1-1,0.4-1.3c0.3-0.4,0.7-0.6,1.2-0.8c0.5-0.2,1.2-0.3,2.1-0.3c0.9,0,1.6,0.1,2.1,0.2
		c0.4,0.1,0.8,0.4,1.1,0.7c0.3,0.3,0.5,0.7,0.7,1.2l-2.8,0.3c-0.1-0.2-0.2-0.4-0.4-0.6c-0.2-0.2-0.5-0.2-0.9-0.2
		c-0.3,0-0.6,0.1-0.7,0.2c-0.2,0.1-0.2,0.3-0.2,0.4c0,0.2,0.1,0.3,0.3,0.4c0.2,0.1,0.6,0.2,1.3,0.3c1,0.1,1.7,0.3,2.2,0.5
		c0.5,0.2,0.9,0.5,1.1,0.9c0.3,0.4,0.4,0.8,0.4,1.2c0,0.5-0.1,0.9-0.4,1.3c-0.3,0.4-0.7,0.8-1.3,1c-0.6,0.3-1.4,0.4-2.4,0.4
		c-1.4,0-2.4-0.2-3-0.6C405.7,95.3,405.3,94.7,405.2,94z"/>
	<path class="st0" d="M415,85.4h3v2h-3V85.4z M415,88.4h3v7.8h-3V88.4z"/>
	<path class="st0" d="M428.1,85.4v10.8h-2.8V95c-0.4,0.5-0.7,0.8-1.1,1c-0.4,0.2-0.9,0.3-1.4,0.3c-1.1,0-1.9-0.4-2.4-1.2
		c-0.6-0.8-0.8-1.8-0.8-2.9c0-1.3,0.3-2.3,0.9-3c0.6-0.7,1.4-1,2.4-1c0.5,0,0.9,0.1,1.3,0.2c0.4,0.2,0.7,0.4,1,0.7v-3.7H428.1z
		 M425.1,92.2c0-0.6-0.1-1.1-0.4-1.4c-0.3-0.3-0.6-0.5-1-0.5c-0.3,0-0.6,0.1-0.9,0.4c-0.2,0.3-0.4,0.8-0.4,1.5
		c0,0.6,0.1,1.1,0.4,1.4c0.2,0.3,0.5,0.4,0.9,0.4c0.4,0,0.7-0.1,1-0.4C425,93.4,425.1,92.9,425.1,92.2z"/>
	<path class="st0" d="M438.6,93h-6c0.1,0.5,0.2,0.8,0.4,1.1c0.3,0.3,0.7,0.5,1.1,0.5c0.3,0,0.6-0.1,0.8-0.2c0.2-0.1,0.3-0.3,0.5-0.5
		l2.9,0.3c-0.5,0.8-1,1.3-1.6,1.7c-0.6,0.3-1.5,0.5-2.7,0.5c-1,0-1.8-0.1-2.4-0.4c-0.6-0.3-1.1-0.8-1.5-1.4
		c-0.4-0.6-0.6-1.4-0.6-2.2c0-1.2,0.4-2.2,1.2-3c0.8-0.8,1.9-1.1,3.2-1.1c1.1,0,2,0.2,2.6,0.5s1.1,0.8,1.5,1.5
		c0.3,0.6,0.5,1.5,0.5,2.5V93z M435.5,91.6c-0.1-0.6-0.2-1-0.5-1.2c-0.3-0.3-0.6-0.4-1-0.4c-0.5,0-0.9,0.2-1.1,0.6
		c-0.2,0.2-0.3,0.6-0.3,1.1H435.5z"/>
	<path class="st0" d="M452.3,91.7l2.9,0.9c-0.2,0.8-0.5,1.5-0.9,2.1c-0.4,0.5-0.9,1-1.6,1.2c-0.6,0.3-1.4,0.4-2.4,0.4
		c-1.2,0-2.1-0.2-2.9-0.5c-0.7-0.3-1.4-0.9-1.9-1.8c-0.5-0.9-0.8-2-0.8-3.3c0-1.8,0.5-3.2,1.4-4.1c0.9-1,2.3-1.4,4-1.4
		c1.4,0,2.4,0.3,3.2,0.8c0.8,0.5,1.4,1.4,1.7,2.5l-2.9,0.7c-0.1-0.3-0.2-0.6-0.3-0.7c-0.2-0.3-0.4-0.5-0.7-0.6
		c-0.3-0.1-0.6-0.2-0.9-0.2c-0.8,0-1.3,0.3-1.7,0.9c-0.3,0.5-0.5,1.2-0.5,2.1c0,1.2,0.2,2,0.5,2.5c0.4,0.4,0.9,0.7,1.5,0.7
		c0.6,0,1.1-0.2,1.4-0.5C452,92.9,452.2,92.4,452.3,91.7z"/>
	<path class="st0" d="M456.8,85.4h3v2h-3V85.4z M456.8,88.4h3v7.8h-3V88.4z"/>
	<path class="st0" d="M461.7,88.4h2.8v1.3c0.4-0.5,0.8-0.9,1.3-1.1c0.4-0.2,0.9-0.3,1.6-0.3c0.8,0,1.5,0.2,1.9,0.7s0.7,1.3,0.7,2.3
		v5h-3v-4.3c0-0.5-0.1-0.8-0.3-1c-0.2-0.2-0.4-0.3-0.8-0.3c-0.4,0-0.7,0.1-0.9,0.4s-0.3,0.8-0.3,1.5v3.7h-3V88.4z"/>
	<path class="st0" d="M480.4,93h-6c0.1,0.5,0.2,0.8,0.4,1.1c0.3,0.3,0.7,0.5,1.1,0.5c0.3,0,0.6-0.1,0.8-0.2c0.2-0.1,0.3-0.3,0.5-0.5
		l2.9,0.3c-0.5,0.8-1,1.3-1.6,1.7c-0.6,0.3-1.5,0.5-2.7,0.5c-1,0-1.8-0.1-2.4-0.4c-0.6-0.3-1.1-0.8-1.5-1.4
		c-0.4-0.6-0.6-1.4-0.6-2.2c0-1.2,0.4-2.2,1.2-3c0.8-0.8,1.9-1.1,3.2-1.1c1.1,0,2,0.2,2.6,0.5s1.1,0.8,1.5,1.5
		c0.3,0.6,0.5,1.5,0.5,2.5V93z M477.4,91.6c-0.1-0.6-0.2-1-0.5-1.2c-0.3-0.3-0.6-0.4-1-0.4c-0.5,0-0.9,0.2-1.1,0.6
		c-0.2,0.2-0.3,0.6-0.3,1.1H477.4z"/>
	<path class="st0" d="M481.8,88.4h2.8v1.1c0.4-0.5,0.8-0.8,1.2-1c0.4-0.2,0.9-0.3,1.5-0.3c0.6,0,1.1,0.1,1.5,0.3
		c0.4,0.2,0.7,0.5,0.9,1c0.5-0.5,0.9-0.9,1.3-1s0.9-0.3,1.4-0.3c0.8,0,1.5,0.2,2,0.7s0.7,1.3,0.7,2.3v4.9h-3v-4.4
		c0-0.4-0.1-0.6-0.2-0.8c-0.2-0.3-0.4-0.4-0.7-0.4c-0.4,0-0.6,0.1-0.8,0.4s-0.3,0.7-0.3,1.2v4h-3v-4.3c0-0.3,0-0.6-0.1-0.7
		c-0.1-0.2-0.2-0.4-0.3-0.5s-0.3-0.2-0.6-0.2c-0.3,0-0.6,0.1-0.8,0.4c-0.2,0.3-0.3,0.7-0.3,1.3v4h-3V88.4z"/>
	<path class="st0" d="M499.5,90.9l-2.9-0.3c0.1-0.5,0.3-0.9,0.5-1.2c0.2-0.3,0.5-0.5,0.9-0.7c0.3-0.2,0.7-0.3,1.1-0.4
		c0.5-0.1,1-0.1,1.6-0.1c0.9,0,1.6,0.1,2.2,0.2s1,0.3,1.4,0.6c0.3,0.2,0.5,0.5,0.6,0.9c0.1,0.4,0.2,0.8,0.2,1.2v3.4
		c0,0.4,0,0.7,0.1,0.9c0,0.2,0.1,0.5,0.3,0.8h-2.8c-0.1-0.2-0.2-0.4-0.2-0.5c0-0.1-0.1-0.3-0.1-0.5c-0.4,0.4-0.8,0.6-1.2,0.8
		c-0.5,0.2-1.1,0.3-1.8,0.3c-0.9,0-1.6-0.2-2.1-0.6c-0.5-0.4-0.7-1-0.7-1.6c0-0.6,0.2-1.1,0.5-1.5c0.3-0.4,1-0.7,1.9-0.9
		c1.1-0.2,1.8-0.4,2.2-0.5c0.3-0.1,0.7-0.2,1.1-0.4c0-0.4-0.1-0.6-0.2-0.8c-0.2-0.1-0.4-0.2-0.8-0.2c-0.5,0-0.9,0.1-1.1,0.2
		C499.8,90.3,499.7,90.5,499.5,90.9z M502.1,92.5c-0.4,0.1-0.8,0.3-1.3,0.4c-0.6,0.2-1,0.3-1.2,0.5c-0.2,0.2-0.3,0.3-0.3,0.6
		c0,0.2,0.1,0.4,0.2,0.6s0.4,0.2,0.7,0.2c0.3,0,0.6-0.1,0.9-0.2c0.3-0.2,0.5-0.4,0.6-0.6s0.2-0.5,0.2-0.9V92.5z"/>
	<path class="st0" d="M511.7,94.1h-5.5v-2.5l5.5-6.5h2.6v6.6h1.4v2.3h-1.4v2h-2.6V94.1z M511.7,91.8v-3.4l-2.9,3.4H511.7z"/>
	<path class="st0" d="M517.1,85.4h4.9c1,0,1.8,0.1,2.4,0.4c0.6,0.3,1.1,0.6,1.5,1.1c0.4,0.5,0.7,1.1,0.9,1.7
		c0.2,0.7,0.3,1.4,0.3,2.1c0,1.2-0.1,2-0.4,2.7c-0.3,0.6-0.6,1.2-1.1,1.6c-0.5,0.4-1,0.7-1.5,0.9c-0.7,0.2-1.4,0.3-2,0.3h-4.9V85.4z
		 M520.5,87.8v5.9h0.8c0.7,0,1.2-0.1,1.5-0.2c0.3-0.2,0.5-0.4,0.7-0.8c0.2-0.4,0.3-1,0.3-1.9c0-1.1-0.2-1.9-0.6-2.3
		c-0.4-0.4-1-0.6-1.9-0.6H520.5z"/>
</g>
</svg>
