<svg xmlns="http://www.w3.org/2000/svg" width="89.47" height="29.6"><path fill="#4285F4" d="M11.65 22.96C5.32 22.96 0 17.81 0 11.48S5.32 0 11.65 0c3.5 0 5.99 1.37 7.87 3.16L17.3 5.38c-1.34-1.26-3.16-2.24-5.66-2.24-4.62 0-8.23 3.72-8.23 8.34 0 4.62 3.61 8.34 8.23 8.34 3 0 4.7-1.2 5.8-2.3.9-.9 1.48-2.18 1.71-3.95h-7.5V10.5H22.2c.11.56.17 1.16.17 1.89 0 2.35-.64 5.26-2.72 7.34-2.01 2.11-4.59 3.23-8 3.23z"/><path fill="#E94235" d="M38.55 15.57c0 4.26-3.32 7.39-7.4 7.39s-7.4-3.14-7.4-7.39c0-4.28 3.32-7.39 7.4-7.39s7.4 3.1 7.4 7.39zm-3.24 0c0-2.66-1.93-4.48-4.16-4.48-2.23 0-4.16 1.82-4.16 4.48 0 2.63 1.93 4.48 4.16 4.48 2.23 0 4.16-1.85 4.16-4.48z"/><path fill="#FABB05" d="M54.55 15.57c0 4.26-3.32 7.39-7.4 7.39s-7.4-3.14-7.4-7.39c0-4.28 3.32-7.39 7.4-7.39s7.4 3.1 7.4 7.39zm-3.24 0c0-2.66-1.93-4.48-4.16-4.48-2.23 0-4.16 1.82-4.16 4.48 0 2.63 1.93 4.48 4.16 4.48 2.23 0 4.16-1.85 4.16-4.48z"/><path fill="#4285F4" d="M69.65 8.62V21.9c0 5.46-3.22 7.7-7.03 7.7-3.58 0-5.74-2.41-6.55-4.37l2.83-1.18c.5 1.2 1.74 2.63 3.72 2.63 2.44 0 3.95-1.51 3.95-4.34v-1.06h-.11c-.73.9-2.13 1.68-3.89 1.68-3.7 0-6.92-3.22-6.92-7.36 0-4.17 3.22-7.42 6.92-7.42 1.76 0 3.16.78 3.89 1.65h.11v-1.2h3.08zm-2.86 6.98c0-2.6-1.74-4.51-3.95-4.51-2.24 0-3.95 1.9-3.95 4.51 0 2.58 1.71 4.45 3.95 4.45 2.22 0 3.95-1.88 3.95-4.45z"/><path fill="#34A853" d="M74.65.78v21.73H71.4V.78h3.25z"/><path fill="#E94235" d="M86.81 18l2.52 1.68c-.81 1.2-2.77 3.28-6.16 3.28-4.2 0-7.34-3.25-7.34-7.39 0-4.4 3.16-7.39 6.97-7.39 3.84 0 5.71 3.05 6.33 4.7l.34.84-9.88 4.09c.76 1.48 1.93 2.24 3.58 2.24 1.65 0 2.8-.81 3.64-2.05zm-7.76-2.66l6.61-2.74c-.36-.92-1.46-1.57-2.74-1.57-1.66 0-3.95 1.46-3.87 4.31z"/></svg>