<svg width="24" height="24" xmlns="http://www.w3.org/2000/svg" xmlns:xlink="http://www.w3.org/1999/xlink"><defs><path id="a" d="M0 0h18v18H0z"/></defs><g transform="translate(3 3)" fill="none" fill-rule="evenodd"><mask id="b" fill="#fff"><use xlink:href="#a"/></mask><path d="M17.007 18a.994.994 0 0 0 .993-.993V.993A.993.993 0 0 0 17.007 0H.993A.993.993 0 0 0 0 .993v16.014c0 .548.445.993.993.993h16.014z" fill="#414141" mask="url(#b)"/><path d="M13.193 18v-6.842h2.358l.353-2.667h-2.711V6.79c0-.772.22-1.298 1.357-1.298L16 5.49V3.105A19.926 19.926 0 0 0 13.887 3c-2.091 0-3.522 1.243-3.522 3.525V8.49H8v2.667h2.365V18h2.828z" fill="#F6F6F6" mask="url(#b)"/></g></svg>