<svg width="24" height="24" viewBox="0 0 24 17" xmlns="http://www.w3.org/2000/svg"><path d="M23.74 3.606s-.23-1.65-.95-2.37c-.91-.96-1.93-.96-2.4-1.02C17.04-.029 12 .001 12 .001s-5.02-.03-8.37.21c-.46.06-1.48.06-2.39 1.02-.72.72-.96 2.37-.96 2.37S.04 5.546 0 7.481v2.025c.04 1.94.28 3.875.28 3.875s.24 1.65.96 2.38c.91.95 2.1.92 2.64 1.02 1.88.18 7.91.22 8.12.22 0 0 5.05.01 8.4-.23.46-.06 1.48-.06 2.39-1.02.72-.72.96-2.37.96-2.37s.24-1.94.25-3.875V7.481a39.52 39.52 0 0 0-.26-3.875zM9.57 12.001v-7.01L16 8.631l-6.43 3.37z" fill="#424242" fill-rule="evenodd"/></svg>