<svg width="24" height="24" viewBox="0 0 20 17" xmlns="http://www.w3.org/2000/svg"><path d="M20 1.949a8.121 8.121 0 0 1-2.357.654 4.158 4.158 0 0 0 1.804-2.3 8.153 8.153 0 0 1-2.605 1.01A4.074 4.074 0 0 0 13.847 0C11.58 0 9.743 1.86 9.743 4.155c0 .326.037.643.107.947C6.44 4.93 3.416 3.275 1.392.761A4.176 4.176 0 0 0 .837 2.85c0 1.441.724 2.713 1.825 3.458a4.048 4.048 0 0 1-1.858-.52v.053c0 2.013 1.414 3.693 3.29 4.074a4.063 4.063 0 0 1-1.852.072c.522 1.65 2.037 2.852 3.833 2.885A8.168 8.168 0 0 1 0 14.593a11.509 11.509 0 0 0 6.29 1.867c7.547 0 11.674-6.332 11.674-11.823 0-.18-.004-.36-.012-.537A8.399 8.399 0 0 0 20 1.949" fill="#414141" fill-rule="evenodd"/></svg>